<svg id="svg" version="1.1" xmlns="http://www.w3.org/2000/svg" xmlns:xlink="http://www.w3.org/1999/xlink" width="400" height="400" viewBox="0, 0, 400,400"><g id="svgg"><path id="path0" d="M75.336 57.229 C 66.906 58.914,59.506 66.002,57.149 74.650 C 56.188 78.177,55.852 319.440,56.802 324.037 C 58.830 333.848,64.845 340.393,74.008 342.758 C 76.937 343.514,321.470 343.690,325.612 342.939 C 333.638 341.484,340.787 334.428,343.007 325.768 C 343.949 322.094,343.813 78.493,342.867 75.000 C 340.565 66.498,335.212 60.841,326.367 57.560 C 323.792 56.605,80.065 56.284,75.336 57.229 M282.970 120.332 C 288.192 122.286,289.675 127.214,287.298 134.721 C 283.928 145.364,280.616 149.386,252.139 177.420 C 248.277 181.221,244.453 185.013,243.641 185.846 L 242.166 187.360 242.598 189.481 C 242.970 191.312,246.600 206.010,260.140 260.527 C 263.385 273.595,263.440 272.751,259.080 276.981 C 250.791 285.025,250.171 285.327,248.126 282.324 C 246.986 280.650,238.016 266.262,226.879 248.242 C 211.197 222.869,208.486 218.522,208.065 218.078 C 207.716 217.711,204.459 220.732,193.745 231.360 C 186.117 238.926,178.961 245.820,177.843 246.680 C 176.676 247.576,175.888 248.465,175.992 248.766 C 176.334 249.747,181.223 270.502,181.451 271.940 C 181.799 274.130,180.926 275.564,176.435 280.176 C 171.987 284.744,171.178 285.125,169.394 283.496 C 168.612 282.782,156.768 264.143,155.142 261.067 L 154.694 260.219 150.882 261.551 C 141.646 264.778,138.550 260.706,143.148 251.381 C 143.674 250.315,144.068 249.436,144.025 249.428 C 143.588 249.350,126.744 239.079,120.215 234.909 C 117.904 233.433,118.158 232.920,124.102 227.078 C 130.388 220.901,128.603 221.182,139.399 224.669 C 143.404 225.962,148.862 227.715,151.530 228.564 L 156.380 230.108 159.538 226.675 C 162.221 223.758,170.432 215.152,184.167 200.862 C 186.704 198.223,187.205 197.505,186.875 196.982 C 186.652 196.629,172.497 187.451,155.419 176.588 C 138.340 165.724,123.279 156.141,121.949 155.292 C 118.750 153.250,118.718 153.338,124.902 147.184 C 131.825 140.296,131.612 140.365,139.258 142.530 C 142.266 143.382,149.561 145.399,155.469 147.012 C 161.377 148.625,170.430 151.109,175.586 152.533 C 180.742 153.957,189.707 156.424,195.508 158.014 C 201.309 159.605,209.208 161.774,213.061 162.835 L 220.067 164.764 237.592 147.448 C 253.061 132.162,255.629 129.787,259.492 127.198 C 269.164 120.713,277.485 118.280,282.970 120.332 " stroke="none" fill="#3189fb" fill-rule="evenodd"></path><path id="path1" d="M0.000 200.000 L 0.000 400.000 200.000 400.000 L 400.000 400.000 400.000 200.000 L 400.000 0.000 200.000 0.000 L 0.000 0.000 0.000 200.000 M325.195 57.208 C 334.207 59.343,341.056 66.394,343.123 75.663 C 343.691 78.211,343.750 89.938,343.750 200.912 L 343.750 323.350 342.751 326.798 C 340.144 335.792,333.342 341.852,324.184 343.338 C 319.535 344.092,78.900 343.890,75.139 343.129 C 66.317 341.342,59.307 334.762,57.057 326.157 C 55.833 321.475,55.817 79.087,57.040 74.673 C 59.490 65.832,65.206 60.016,74.023 57.393 C 77.258 56.431,321.158 56.251,325.195 57.208 M276.367 119.892 C 275.938 120.085,274.355 120.523,272.852 120.865 C 263.781 122.931,258.926 126.631,237.840 147.546 C 228.248 157.060,220.185 164.844,219.922 164.844 C 219.658 164.844,217.310 164.239,214.702 163.501 C 210.005 162.170,206.927 161.323,172.070 151.759 C 162.188 149.048,151.025 145.975,147.266 144.931 C 130.318 140.226,132.483 139.991,125.131 147.330 C 122.051 150.404,119.531 153.053,119.531 153.216 C 119.531 153.380,121.383 154.700,123.647 156.151 C 131.436 161.144,133.873 162.702,137.853 165.234 C 140.048 166.631,142.844 168.410,144.067 169.188 C 145.289 169.967,149.277 172.496,152.930 174.810 C 156.582 177.124,160.713 179.754,162.109 180.655 C 163.506 181.556,169.687 185.496,175.846 189.411 C 182.004 193.327,187.153 196.817,187.288 197.167 C 187.547 197.842,187.493 197.901,172.223 213.471 C 167.795 217.986,162.540 223.497,160.544 225.718 C 155.984 230.794,157.040 230.620,148.296 227.739 C 130.718 221.946,129.475 221.653,128.223 223.002 C 127.847 223.406,125.520 225.782,123.052 228.280 C 117.831 233.565,117.856 233.210,122.498 236.106 C 133.299 242.844,143.128 248.828,143.393 248.828 C 144.230 248.828,144.059 249.857,142.771 252.571 C 138.665 261.224,142.469 264.754,151.886 261.027 C 154.921 259.826,153.738 258.535,162.288 272.374 C 170.847 286.227,170.384 285.878,174.700 281.738 C 182.139 274.603,182.080 274.825,179.471 263.897 C 178.492 259.799,177.255 254.618,176.722 252.385 L 175.752 248.325 178.012 246.351 C 181.780 243.062,190.350 234.708,199.252 225.649 L 207.684 217.068 214.339 227.772 C 218.000 233.660,223.447 242.432,226.444 247.266 C 251.009 286.886,249.238 284.257,251.058 283.809 C 253.002 283.331,262.500 273.480,262.500 271.942 C 262.500 271.244,258.123 253.058,252.774 231.528 C 247.425 209.998,242.922 191.592,242.768 190.625 C 242.614 189.658,242.322 188.553,242.120 188.168 C 241.811 187.580,244.700 184.533,260.265 169.028 C 279.918 149.449,281.058 148.132,284.691 140.820 C 289.776 130.584,289.317 123.273,283.427 120.679 C 281.544 119.849,277.474 119.396,276.367 119.892 " stroke="none" fill="#fbfbfb" fill-rule="evenodd"></path><path id="path2" d="M56.367 79.688 C 56.367 80.869,56.440 81.353,56.530 80.762 C 56.619 80.171,56.619 79.204,56.530 78.613 C 56.440 78.022,56.367 78.506,56.367 79.688 M242.358 142.676 L 241.211 143.945 242.480 142.798 C 243.179 142.167,243.750 141.596,243.750 141.528 C 243.750 141.227,243.428 141.492,242.358 142.676 M123.218 148.926 L 122.070 150.195 123.340 149.048 C 124.038 148.417,124.609 147.846,124.609 147.778 C 124.609 147.477,124.287 147.742,123.218 148.926 M226.355 158.691 L 224.023 161.133 226.465 158.801 C 227.808 157.519,228.906 156.420,228.906 156.360 C 228.906 156.071,228.521 156.424,226.355 158.691 M261.315 168.262 L 259.180 170.508 261.426 168.373 C 262.661 167.198,263.672 166.188,263.672 166.127 C 263.672 165.837,263.298 166.175,261.315 168.262 M247.449 181.738 L 245.117 184.180 247.559 181.848 C 248.901 180.566,250.000 179.467,250.000 179.407 C 250.000 179.118,249.614 179.470,247.449 181.738 M243.338 185.840 L 241.992 187.305 243.457 185.959 C 244.820 184.706,245.101 184.375,244.803 184.375 C 244.738 184.375,244.079 185.034,243.338 185.840 M183.779 201.270 L 181.055 204.102 183.887 201.378 C 186.517 198.848,186.897 198.438,186.611 198.438 C 186.551 198.438,185.277 199.712,183.779 201.270 M173.807 211.621 L 172.461 213.086 173.926 211.740 C 175.289 210.487,175.570 210.156,175.272 210.156 C 175.207 210.156,174.547 210.815,173.807 211.621 M173.999 282.520 L 172.852 283.789 174.121 282.642 C 175.304 281.572,175.570 281.250,175.268 281.250 C 175.201 281.250,174.630 281.821,173.999 282.520 " stroke="none" fill="#9ccafb" fill-rule="evenodd"></path><path id="path3" d="M252.911 132.520 L 251.367 134.180 253.027 132.636 C 254.571 131.200,254.867 130.859,254.571 130.859 C 254.508 130.859,253.761 131.606,252.911 132.520 M233.973 151.074 L 231.445 153.711 234.082 151.183 C 235.532 149.793,236.719 148.606,236.719 148.546 C 236.719 148.259,236.321 148.625,233.973 151.074 M202.921 221.973 L 199.805 225.195 203.027 222.079 C 206.020 219.186,206.428 218.750,206.143 218.750 C 206.084 218.750,204.634 220.200,202.921 221.973 M139.160 343.652 C 172.837 343.707,227.944 343.707,261.621 343.652 C 295.298 343.597,267.744 343.552,200.391 343.552 C 133.037 343.552,105.483 343.597,139.160 343.652 " stroke="none" fill="#e3eefb" fill-rule="evenodd"></path><path id="path4" d="M239.630 145.410 L 238.086 147.070 239.746 145.526 C 241.290 144.090,241.586 143.750,241.290 143.750 C 241.226 143.750,240.479 144.497,239.630 145.410 M250.952 178.223 L 249.805 179.492 251.074 178.345 C 251.772 177.714,252.344 177.143,252.344 177.075 C 252.344 176.774,252.021 177.039,250.952 178.223 M176.343 209.082 L 175.195 210.352 176.465 209.204 C 177.648 208.135,177.914 207.813,177.612 207.813 C 177.545 207.813,176.974 208.384,176.343 209.082 " stroke="none" fill="#c9e2fb" fill-rule="evenodd"></path></g></svg>